SplineFontDB: 3.0
FontName: Armagetronad
FullName: Armagetronad
FamilyName: Armagetronad
Weight: Mager
Copyright: Created by Dave Fancella with FontForge 1.0 (http://fontforge.sf.net)
UComments: "2006-5-7: Created." 
Version: 001.000
ItalicAngle: 0
UnderlinePosition: -100
UnderlineWidth: 50
Ascent: 819
Descent: 205
LayerCount: 2
Layer: 0 0 "Back"  1
Layer: 1 0 "Fore"  0
NeedsXUIDChange: 1
XUID: [1021 537 1979520975 15056201]
FSType: 0
OS2Version: 0
OS2_WeightWidthSlopeOnly: 0
OS2_UseTypoMetrics: 0
CreationTime: 1230356750
ModificationTime: 1231182067
OS2TypoAscent: 0
OS2TypoAOffset: 1
OS2TypoDescent: 0
OS2TypoDOffset: 1
OS2TypoLinegap: 92
OS2WinAscent: 0
OS2WinAOffset: 1
OS2WinDescent: 0
OS2WinDOffset: 1
HheadAscent: 0
HheadAOffset: 1
HheadDescent: 0
HheadDOffset: 1
OS2Vendor: 'PfEd'
Lookup: 4 0 0 "'frac' Diagonal Fractions lookup 0"  {"'frac' Diagonal Fractions lookup 0 subtable"  } ['frac' ('DFLT' <'dflt' > ) ]
DEI: 91125
ShortTable: cvt  2
  34
  648
EndShort
LangName: 1033 
Encoding: UnicodeFull
UnicodeInterp: none
NameList: Adobe Glyph List
DisplaySize: -36
AntiAlias: 1
FitToEm: 1
WinInfo: 9618 21 13
Grid
-154 -457 m 25
 -214 -457 l 25
670 1122 m 25
-150 -507 m 25
 670 -508 l 17
 670 1122 l 9
 -151 1123 l 25
 -150 -507 l 25
EndSplineSet
BeginChars: 1114112 261

StartChar: exclam
Encoding: 33 33 0
Width: 670
Flags: HW
TeX: 101 0
LayerCount: 2
Fore
SplineSet
104 164 m 1
 240 164 l 1
 240 4 l 1
 104 4 l 1
 104 164 l 1
102 819 m 1
 236 819 l 9
 236 242 l 17
 168 286 103 321.979 103 525 c 0
 103 809 104 815 102 819 c 1
EndSplineSet
EndChar

StartChar: A
Encoding: 65 65 1
Width: 670
Flags: HW
TeX: 65 0
LayerCount: 2
Fore
SplineSet
631 -4 m 25
 496 -4 l 25
 439 177 l 25
 224 177 l 25
 172 -4 l 25
 39 -4 l 25
 329 816 l 25
 631 -4 l 25
251 282 m 25
 408 282 l 25
 334 514 l 25
 251 282 l 25
EndSplineSet
EndChar

StartChar: B
Encoding: 66 66 2
Width: 670
Flags: HW
LayerCount: 2
Back
Fore
SplineSet
312.5 717 m 26
 186.5 717 l 25
 186.5 465 l 25
 324.5 465 l 18
 420.5 465 459.5 501 459.5 597 c 0
 459.5 690 386.507 717 312.5 717 c 26
309.5 357 m 26
 183.5 357 l 25
 183.5 105 l 25
 321.5 105 l 18
 417.5 105 456.5 141 456.5 237 c 0
 456.5 330 383.507 357 309.5 357 c 26
81.5 0 m 25
 81.5 813 l 25
 372.5 813 l 17
 495.661 813 588.5 696 588.5 597 c 0
 588.5 472.241 522.5 414 456.5 414 c 10
 261.5 414 l 25
 456.5 414 l 17
 521.524 421.237 588.5 345 588.5 219 c 1
 588.5 87 516.5 0 387.5 0 c 9
 81.5 0 l 25
EndSplineSet
EndChar

StartChar: C
Encoding: 67 67 4
Width: 670
Flags: HW
LayerCount: 2
Back
Fore
SplineSet
576.5 819 m 25
 576.5 720.1 l 25
 414.5 720.1 l 17
 213.526 720.1 201.5 560.25 201.5 411.899 c 0
 201.5 263.51 225.5 117.5 441.5 117.5 c 10
 576.5 117.5 l 25
 576.5 6.25 l 25
 381.5 6.25 l 1
 171.866 6.25 93.5 218.7 93.5 411.899 c 1
 93.5 649.95 174.5 819 355.5 819 c 10
 576.5 819 l 25
EndSplineSet
EndChar

StartChar: D
Encoding: 68 68 5
Width: 670
Flags: HW
LayerCount: 2
Back
Fore
SplineSet
286.442 720 m 25
 286.442 101 l 25
 328.442 101 l 17
 421.264 101 484.442 241 484.442 405 c 0
 484.442 592.039 424.442 720 319.442 720 c 10
 286.442 720 l 25
179.442 105 m 25
 179.442 719 l 25
 71.4434 719 l 25
 71.4434 819 l 25
 370.442 819 l 26
 555.794 819.62 595.625 588.003 598.442 402 c 4
 601.442 204 545.849 0 364.442 0 c 26
 74.4434 0 l 17
 74.4434 104 l 9
 179.442 105 l 25
EndSplineSet
EndChar

StartChar: E
Encoding: 69 69 6
Width: 670
Flags: HW
LayerCount: 2
Back
Fore
SplineSet
75.5 0 m 29
 75.5 816 l 29
 594.5 815 l 29
 594.5 712 l 29
 183.5 710 l 29
 183.5 460 l 29
 387.5 459 l 29
 386.5 358 l 29
 180.5 357 l 29
 181.5 108 l 29
 592.5 109 l 29
 592.5 0 l 29
 75.5 0 l 29
EndSplineSet
EndChar

StartChar: F
Encoding: 70 70 7
Width: 670
Flags: HW
LayerCount: 2
Fore
SplineSet
75.5 0 m 29
 75.5 816 l 25
 594.5 815 l 25
 594.5 712 l 25
 183.5 710 l 25
 183.5 460 l 25
 387.5 459 l 25
 386.5 358 l 25
 180.5 357 l 25
 181.5 108 l 25
 180.5 0 l 25
 75.5 0 l 29
EndSplineSet
EndChar

StartChar: G
Encoding: 71 71 8
Width: 670
Flags: HW
LayerCount: 2
Back
Fore
SplineSet
308 360 m 29
 617 359 l 29
 617 0 l 29
 53 0 l 29
 53 565 l 29
 304 816 l 29
 614 816 l 29
 615 718 l 29
 366 717 l 29
 157 507 l 29
 158 103 l 21
 512 103 l 13
 511 255 l 29
 309 256 l 29
 308 360 l 29
EndSplineSet
EndChar

StartChar: H
Encoding: 72 72 9
Width: 670
Flags: HW
LayerCount: 2
Back
Fore
SplineSet
511 461 m 29
 511 825 l 29
 616 818 l 29
 616 -1 l 29
 511 0 l 29
 512 361 l 29
 161 360 l 29
 160 0 l 29
 54 0 l 29
 55 822 l 29
 157 822 l 29
 158 462 l 29
 511 461 l 29
EndSplineSet
EndChar

StartChar: I
Encoding: 73 73 10
Width: 670
Flags: HW
LayerCount: 2
Back
Fore
SplineSet
65.5 818 m 25
 604.5 819 l 25
 604.5 717 l 25
 391 716 l 25
 390 106 l 25
 604.5 104 l 25
 604.5 0 l 25
 65.5 0 l 25
 65.5 105 l 25
 280 105 l 25
 279 717 l 25
 65.5 717 l 25
 65.5 818 l 25
EndSplineSet
EndChar

StartChar: J
Encoding: 74 74 11
Width: 670
Flags: HW
LayerCount: 2
Back
Fore
SplineSet
432 166 m 9
 431 810 l 25
 530 810 l 25
 530 166 l 17
 530 0 419 0 350 0 c 1
 298 0 l 5
 236 0 140 0 140 170 c 9
 140 358 l 25
 236 356 l 25
 236 162 l 17
 236 110 242 106 299 105 c 9
 371 104 l 17
 422 108 432 124 432 166 c 9
EndSplineSet
EndChar

StartChar: K
Encoding: 75 75 12
Width: 670
Flags: HW
LayerCount: 2
Back
Fore
SplineSet
593 818 m 25
 592 767 l 25
 262 436 l 25
 592 47 l 25
 592 -2 l 25
 481 -2 l 25
 183 362 l 25
 185 -1 l 25
 77 0 l 25
 77 820 l 25
 183 819 l 25
 183 521 l 25
 483 818 l 25
 593 818 l 25
EndSplineSet
EndChar

StartChar: L
Encoding: 76 76 13
Width: 670
Flags: HW
HStem: 0 100<129 671> 796 20G<130 229>
VStem: 130 99<0 100 816 816>
LayerCount: 2
Back
Fore
SplineSet
65 816 m 29
 164 816 l 25
 165 100 l 25
 604 100 l 25
 606 0 l 25
 64 0 l 25
 65 816 l 29
EndSplineSet
EndChar

StartChar: M
Encoding: 77 77 14
Width: 670
Flags: HW
LayerCount: 2
Back
Fore
SplineSet
588.5 819 m 25
 588.5 0 l 25
 486.5 0 l 25
 486.5 606 l 25
 339.5 413 l 25
 183.5 624 l 25
 182.5 0 l 25
 82.5 0 l 25
 81.5 818 l 25
 189.5 819 l 25
 335.5 625 l 25
 479.5 818 l 25
 588.5 819 l 25
EndSplineSet
EndChar

StartChar: N
Encoding: 78 78 15
Width: 670
Flags: HW
LayerCount: 2
Back
Fore
SplineSet
524 818 m 29
 631 818 l 29
 633 1 l 25
 528 0 l 25
 150 628 l 25
 150 7 l 25
 37 7 l 25
 37 818 l 29
 145 818 l 29
 523 212 l 25
 524 818 l 29
EndSplineSet
EndChar

StartChar: O
Encoding: 79 79 16
Width: 670
Flags: HW
LayerCount: 2
Back
Fore
SplineSet
335 690 m 24
 206.146 691.086 156.615 539.852 158 411 c 24
 159.397 280.88 210.877 133.097 341 132 c 24
 468.033 130.93 515.366 280.97 514 408 c 24
 512.6 538.258 465.261 688.902 335 690 c 24
338 816 m 0
 528.552 816 623.721 598.019 623 402 c 24
 622.291 209.14 527.857 1.00488 335 0 c 24
 143.091 -1 46.2939 207.089 47 399 c 24
 47.7295 597.312 143 816 338 816 c 0
EndSplineSet
EndChar

StartChar: P
Encoding: 80 80 17
Width: 670
Flags: HW
LayerCount: 2
Back
Fore
SplineSet
159.5 713 m 25
 159.5 409 l 25
 415.5 408 l 17
 474.5 408 510.5 443 514.5 508 c 9
 513.5 613 l 17
 514.5 678 483.5 715 411.5 715 c 9
 159.5 713 l 25
157.5 309 m 25
 155.5 0 l 25
 54.5 0 l 25
 54.5 819 l 25
 411.5 819 l 17
 547.5 818 614.5 750 614.5 619 c 9
 615.5 502 l 17
 615.5 375 532.5 310 418.5 309 c 9
 157.5 309 l 25
EndSplineSet
EndChar

StartChar: Q
Encoding: 81 81 18
Width: 670
Flags: HW
LayerCount: 2
Back
Fore
SplineSet
514.5 640 m 26
 514.793 673.148 500.699 717 478.5 717 c 0
 342.5 717 162.5 565.19 162.5 387 c 26
 162.5 216 l 26
 162.5 168.359 177.377 104.777 213.5 105 c 0
 375.5 106 514.7 231.412 512.5 414 c 10
 514.5 640 l 26
255.5 276 m 25
 345.5 340 l 25
 486.5 108 l 25
 608.5 106 l 25
 609.5 6 l 25
 414.5 6 l 25
 255.5 276 l 25
475.5 819 m 0
 543.514 817.953 609.5 834 609.5 660 c 10
 608.5 413 l 26
 607.591 188.499 489.5 0 207.5 0 c 0
 147.5 0 60.5 54 60.5 210 c 10
 60.5 387 l 26
 60.5 620.626 280.5 822 475.5 819 c 0
EndSplineSet
EndChar

StartChar: R
Encoding: 82 82 19
Width: 670
Flags: HW
LayerCount: 2
Fore
SplineSet
159.5 713 m 25
 159.5 444 l 25
 415.5 443 l 17
 474.5 443 510.5 478 514.5 543 c 9
 513.5 613 l 17
 514.5 678 483.5 715 411.5 715 c 9
 159.5 713 l 25
155.5 0 m 25
 54.5 0 l 25
 54.5 819 l 25
 411.5 819 l 17
 547.5 818 614.5 750 614.5 619 c 9
 615.5 537 l 17
 615.5 410 538.5 345 424.5 344 c 9
 299.5 343 l 25
 608.5 0 l 25
 461.5 0 l 25
 155.5 340 l 25
 155.5 0 l 25
EndSplineSet
EndChar

StartChar: S
Encoding: 83 83 20
Width: 670
Flags: HW
LayerCount: 2
Back
Fore
SplineSet
53.5 617 m 25
 52.5 819 l 25
 617.5 819 l 25
 615.5 618 l 25
 559.5 618 l 25
 461.5 717 l 25
 153.5 717 l 25
 615.5 192 l 25
 617.5 1 l 25
 52.5 0 l 25
 52.5 210 l 25
 103.5 209 l 25
 205.5 108 l 25
 500.5 107 l 25
 53.5 617 l 25
EndSplineSet
EndChar

StartChar: T
Encoding: 84 84 21
Width: 670
Flags: HW
LayerCount: 2
Back
Fore
SplineSet
80 816 m 25
 590 816 l 25
 590 614 l 25
 488 615 l 25
 488 717 l 25
 386 717 l 25
 386 0 l 25
 287 0 l 25
 287 717 l 25
 185 717 l 25
 185 615 l 25
 80 615 l 25
 80 816 l 25
EndSplineSet
EndChar

StartChar: U
Encoding: 85 85 22
Width: 670
Flags: HW
LayerCount: 2
Back
Fore
SplineSet
245.506 -1 m 21
 119.506 -1 53.5059 41 54.5059 195 c 13
 54.5059 816 l 29
 159.506 815 l 29
 160.506 198 l 21
 161.506 130 188.506 105 255.506 106 c 13
 419.506 106 l 21
 486.506 105 513.506 130 514.506 198 c 13
 513.506 819 l 29
 615.506 818 l 29
 614.506 196 l 21
 615.506 42 549.506 0 423.506 0 c 13
 245.506 -1 l 21
EndSplineSet
EndChar

StartChar: V
Encoding: 86 86 23
Width: 670
Flags: HW
LayerCount: 2
Back
Fore
SplineSet
336.5 195 m 25
 509.5 601 l 25
 509.5 814 l 25
 607.5 813 l 25
 608.5 534 l 25
 385.5 0 l 25
 284.5 1 l 25
 61.5 535 l 25
 62.5 816 l 25
 160.5 815 l 25
 160.5 602 l 25
 336.5 195 l 25
EndSplineSet
EndChar

StartChar: W
Encoding: 87 87 24
Width: 670
Flags: HW
LayerCount: 2
Back
Fore
SplineSet
246.5 0 m 17
 114.5 0 79.5 48 79.5 162 c 9
 78.5 816 l 25
 181.5 816 l 25
 180.5 165 l 17
 180.5 75 285.5 63 285.5 192 c 9
 285.5 557 l 25
 384.5 557 l 25
 384.5 192 l 17
 384.5 63 489.5 75 489.5 165 c 9
 488.5 816 l 25
 591.5 816 l 25
 590.5 162 l 17
 590.5 48 555.5 0 423.5 0 c 9
 246.5 0 l 17
EndSplineSet
EndChar

StartChar: X
Encoding: 88 88 25
Width: 670
Flags: HW
LayerCount: 2
Back
SplineSet
75 810 m 25
 570 87 l 29
492 0 m 25
 0 732 l 25
567 732 m 25
 81 9 l 25
0 81 m 25
 501 819 l 25
EndSplineSet
Fore
SplineSet
132.5 0 m 29
 51.5 0 l 25
 55.5 87 l 25
 273.5 408 l 25
 51.5 734 l 25
 51.5 820 l 25
 123.5 820 l 25
 336.5 501 l 25
 553.5 818 l 25
 614.5 819 l 25
 615.5 732 l 25
 402.5 411 l 25
 617.5 85 l 25
 618.5 0 l 25
 544.5 0 l 25
 339.5 312 l 25
 132.5 0 l 29
EndSplineSet
EndChar

StartChar: Y
Encoding: 89 89 26
Width: 670
Flags: HW
LayerCount: 2
Back
Fore
SplineSet
334 511 m 29
 492 669 l 29
 492 813 l 29
 593 813 l 29
 594 618 l 29
 384 408 l 29
 384 0 l 29
 286 1 l 29
 286 409 l 29
 76 619 l 29
 77 814 l 29
 178 814 l 29
 178 670 l 29
 334 511 l 29
EndSplineSet
EndChar

StartChar: Z
Encoding: 90 90 27
Width: 670
Flags: HW
LayerCount: 2
Back
Fore
SplineSet
179.5 102 m 25
 614.5 101 l 25
 614.5 0 l 25
 55.5 0 l 25
 55.5 95 l 25
 488.5 717 l 25
 55.5 716 l 25
 55.5 819 l 25
 610.5 818 l 25
 610.5 715 l 25
 179.5 102 l 25
EndSplineSet
EndChar

StartChar: quotedbl
Encoding: 34 34 28
Width: 670
Flags: HW
LayerCount: 2
Back
Fore
SplineSet
615.5 819 m 25
 615.5 681 l 25
 465.5 414 l 25
 354.5 819 l 25
 615.5 819 l 25
54.5 819 m 25
 315.5 819 l 25
 204.5 414 l 25
 54.5 681 l 25
 54.5 819 l 25
EndSplineSet
EndChar

StartChar: numbersign
Encoding: 35 35 29
Width: 670
Flags: HW
LayerCount: 2
Back
Fore
SplineSet
409 561 m 25
 260 561 l 25
 260 409 l 25
 409 409 l 25
 409 561 l 25
156 819 m 25
 256 819 l 25
 256 666 l 25
 413 666 l 25
 413 816 l 25
 511 816 l 25
 511 665 l 25
 613 665 l 25
 613 565 l 25
 512 565 l 25
 512 408 l 25
 617 408 l 25
 617 308 l 25
 516 308 l 25
 516 155 l 25
 411 155 l 25
 411 308 l 25
 261 308 l 25
 261 159 l 25
 156 159 l 25
 156 312 l 25
 53 312 l 25
 53 411 l 25
 155 411 l 25
 155 563 l 17
 53 563 l 9
 53 663 l 25
 154 663 l 25
 156 819 l 25
EndSplineSet
EndChar

StartChar: dollar
Encoding: 36 36 30
Width: 670
Flags: HW
LayerCount: 2
Back
Fore
SplineSet
285 816 m 25
 388 816 l 25
 388 659 l 25
 589 659 l 25
 589 557 l 25
 182 557 l 25
 182 455 l 25
 590 455 l 25
 590 150 l 25
 389 150 l 25
 389 0 l 25
 287 0 l 25
 287 153 l 25
 80 153 l 25
 80 256 l 25
 488 256 l 25
 488 354 l 25
 80 354 l 25
 80 662 l 25
 283 662 l 25
 285 816 l 25
EndSplineSet
EndChar

StartChar: percent
Encoding: 37 37 31
Width: 670
Flags: HW
LayerCount: 2
Back
Fore
SplineSet
617.5 819 m 25
 617.5 653 l 25
 54.5 0 l 25
 54.5 166 l 25
 617.5 819 l 25
462.5 149 m 25
 618.5 149 l 25
 618.5 0 l 25
 462.5 0 l 25
 462.5 149 l 25
51.5 819 m 25
 207.5 819 l 25
 207.5 669 l 25
 51.5 669 l 25
 51.5 819 l 25
EndSplineSet
EndChar

StartChar: ampersand
Encoding: 38 38 32
Width: 670
Flags: HW
LayerCount: 2
Back
Fore
SplineSet
284 714 m 0
 419 714 503 659.979 503 546 c 0
 503 420 398 384 299 321 c 0
 234.055 279.671 159 267 159 171 c 0
 159 116.564 229.561 101 284 101 c 0
 440 101 539 303 614 303 c 9
 614 190 l 17
 518 105 419 0 275 0 c 0
 169.453 0 56 57 56 159 c 0
 56 315 146.038 329.919 239 393 c 0
 323 450 404 469.142 404 543 c 0
 404 594 362 624 278 624 c 0
 222.997 624 152 597 152 540 c 0
 152 498 246.914 433.051 317 375 c 26
 614 129 l 25
 614 0 l 25
 590 0 l 25
 266 270 l 26
 164.227 354.811 56 404.521 56 537 c 0
 56 645 171.43 714 284 714 c 0
EndSplineSet
EndChar

StartChar: quotesingle
Encoding: 39 39 33
Width: 670
Flags: HW
LayerCount: 2
Back
Fore
SplineSet
265.5 816 m 25
 405.5 816 l 25
 405.5 657 l 25
 264.5 379 l 25
 265.5 816 l 25
EndSplineSet
EndChar

StartChar: slash
Encoding: 47 47 34
Width: 670
Flags: HW
LayerCount: 2
Back
Fore
SplineSet
614 819 m 25
 614 671 l 25
 120 0 l 25
 56 0 l 25
 56 84 l 25
 614 819 l 25
EndSplineSet
EndChar

StartChar: parenleft
Encoding: 40 40 35
Width: 670
Flags: HW
LayerCount: 2
Back
Fore
SplineSet
310.5 402 m 0
 310.5 621.056 448.5 765 565.5 816 c 9
 565.5 723 l 17
 501.5 678 409.5 545.264 409.5 408 c 24
 409.5 273.352 496.5 141 565.5 100 c 9
 565.5 0 l 17
 484.5 0 310.5 207 310.5 402 c 0
EndSplineSet
EndChar

StartChar: parenright
Encoding: 41 41 36
Width: 670
Flags: HW
LayerCount: 2
Fore
SplineSet
367.5 402 m 0
 367.5 207 193.5 0 112.5 0 c 9
 112.5 100 l 17
 181.5 141 268.5 273.352 268.5 408 c 24
 268.5 545.264 176.5 678 112.5 723 c 9
 112.5 816 l 17
 229.5 765 367.5 621.056 367.5 402 c 0
EndSplineSet
EndChar

StartChar: asterisk
Encoding: 42 42 37
Width: 670
Flags: HW
LayerCount: 2
Back
SplineSet
246 102 m 29
 357 105 l 25
 354 711 l 25
 252 717 l 25
 246 102 l 29
33 219 m 25
 501 669 l 25
 570 606 l 25
 93 144 l 25
 33 219 l 25
102 666 m 25
 570 225 l 25
 516 156 l 25
 45 603 l 25
 102 666 l 25
EndSplineSet
Fore
SplineSet
266.5 106 m 25
 266.5 298 l 25
 116.5 154 l 25
 56.5 220 l 25
 257.5 420 l 25
 62.5 597 l 25
 123.5 667 l 25
 269.5 529 l 25
 269.5 716 l 25
 374.5 716 l 25
 374.5 531 l 25
 520.5 669 l 25
 581.5 599 l 25
 386.5 414 l 25
 587.5 222 l 25
 527.5 156 l 25
 377.5 300 l 25
 377.5 106 l 25
 266.5 106 l 25
EndSplineSet
EndChar

StartChar: plus
Encoding: 43 43 38
Width: 670
Flags: HW
LayerCount: 2
Back
Fore
SplineSet
80 360 m 25
 80 462 l 25
 287 462 l 25
 287 662 l 25
 388 662 l 25
 388 461 l 25
 590 461 l 25
 590 360 l 25
 388 360 l 25
 388 153 l 25
 287 153 l 25
 287 360 l 25
 80 360 l 25
EndSplineSet
EndChar

StartChar: comma
Encoding: 44 44 39
Width: 670
Flags: HW
LayerCount: 2
Back
Fore
SplineSet
24 356 m 25
 330 356 l 25
 330 0 l 25
 230 0 l 25
 230 255 l 25
 24 255 l 25
 24 356 l 25
EndSplineSet
EndChar

StartChar: hyphen
Encoding: 45 45 40
Width: 670
Flags: HW
LayerCount: 2
Back
Fore
SplineSet
53 306 m 25
 53 409 l 25
 617 409 l 25
 617 306 l 25
 53 306 l 25
EndSplineSet
EndChar

StartChar: period
Encoding: 46 46 41
Width: 670
Flags: HW
LayerCount: 2
Back
Fore
SplineSet
258.5 153 m 29
 411.5 153 l 29
 411.5 -1 l 29
 258.5 -1 l 29
 258.5 153 l 29
EndSplineSet
EndChar

StartChar: zero
Encoding: 48 48 42
Width: 670
Flags: HW
LayerCount: 2
Back
Fore
SplineSet
271.625 709.92 m 0
 170.225 709.92 151.725 678.1 151.725 564.88 c 0
 151.725 418.558 152.675 372.133 152.675 248.9 c 17
 152.675 135.68 170.225 106.08 275.525 106.08 c 1
 343.775 106.08 331.133 106.08 395.775 106.08 c 0
 495.225 106.08 517.275 135.68 517.275 260 c 0
 517.275 402.859 517.325 424.24 517.325 567.1 c 0
 517.325 675.88 491.325 709.92 389.925 709.92 c 0
 323.625 709.92 330.125 709.92 271.625 709.92 c 0
237.5 816 m 0
 327.5 816 317.5 816 419.5 816 c 0
 575.5 816 615.5 770 615.5 623 c 0
 615.5 429.946 618.5 401.054 618.5 208 c 0
 618.5 40 581.5 0 428.5 0 c 0
 329.05 0 348.5 0 243.5 0 c 1
 81.5 0 54.5 40 54.5 193 c 9
 54.5 359.53 51.5 422.267 51.5 620 c 0
 51.5 773 81.5 816 237.5 816 c 0
EndSplineSet
EndChar

StartChar: one
Encoding: 49 49 43
Width: 670
Flags: HW
LayerCount: 2
Back
Fore
SplineSet
54.5 816 m 25
 391.1 816 l 25
 391.1 109 l 25
 503.3 109 l 25
 503.3 359 l 25
 615.5 359 l 25
 615.5 0 l 25
 54.5 0 l 25
 54.5 109 l 25
 278.9 109 l 25
 278.9 717 l 25
 54.5 717 l 25
 54.5 816 l 25
EndSplineSet
EndChar

StartChar: two
Encoding: 50 50 44
Width: 670
Flags: HW
LayerCount: 2
Back
Fore
SplineSet
53 816 m 25
 617 816 l 25
 617 358 l 25
 159 358 l 25
 159 165 l 17
 159 129 182 106 224 106 c 9
 617 106 l 25
 617 0 l 25
 53 0 l 25
 53 462 l 25
 518 462 l 25
 518 713 l 25
 53 713 l 25
 53 816 l 25
EndSplineSet
EndChar

StartChar: at
Encoding: 64 64 45
Width: 670
Flags: HW
LayerCount: 2
Back
Fore
SplineSet
304 714 m 1
 244 714 235 696 214 675 c 9
 157 606 l 25
 73.9131 660 l 25
 121 717 l 26
 206.081 819.993 304 819 448 819 c 0
 562 819 618 765 618 630 c 10
 618 393 l 25
 618 168 l 17
 618 48 568 0 448 0 c 9
 52 0 l 25
 52 510 l 25
 360 510 l 25
 360 105 l 25
 396.66 105 415 105 454 105 c 0
 485.481 105 514 131.598 514 168 c 0
 514 345 514 447 514 630 c 0
 514 668.963 490.201 714 448 714 c 0
 391 714 358 714 304 714 c 1
157 408 m 25
 157 105 l 25
 258 105 l 25
 258 408 l 25
 157 408 l 25
EndSplineSet
EndChar

StartChar: three
Encoding: 51 51 46
Width: 670
Flags: HW
LayerCount: 2
Back
Fore
SplineSet
78 819 m 25
 592 819 l 25
 592 0 l 25
 78 0 l 25
 78 104 l 25
 489 104 l 25
 489 358 l 25
 183 358 l 25
 183 458 l 25
 489 458 l 25
 489 714 l 25
 78 714 l 25
 78 819 l 25
EndSplineSet
EndChar

StartChar: four
Encoding: 52 52 47
Width: 670
Flags: HW
LayerCount: 2
Back
Fore
SplineSet
107 819 m 25
 207 819 l 25
 207 363 l 25
 411 363 l 25
 411 716 l 25
 516 716 l 25
 516 363 l 25
 563 363 l 25
 563 258 l 25
 516 258 l 25
 516 0 l 25
 411 0 l 25
 411 258 l 25
 107 258 l 25
 107 819 l 25
EndSplineSet
EndChar

StartChar: five
Encoding: 53 53 48
Width: 670
Flags: HW
LayerCount: 2
Back
Fore
SplineSet
252.5 102 m 9
 510.5 102 l 25
 510.5 361 l 25
 153.5 361 l 25
 153.5 819 l 25
 612.5 819 l 25
 612.5 716 l 25
 261.5 716 l 25
 261.5 460 l 25
 612.5 460 l 25
 612.5 0 l 25
 252.5 0 l 17
 150.5 0 141.5 18 57.5 69 c 9
 108.5 153 l 17
 156.5 126 189.5 102 252.5 102 c 9
EndSplineSet
EndChar

StartChar: six
Encoding: 54 54 49
Width: 670
Flags: HW
LayerCount: 2
Back
Fore
SplineSet
512 254 m 25
 157 254 l 25
 157 108 l 25
 512 108 l 25
 512 254 l 25
617 360 m 25
 617 0 l 25
 53 0 l 25
 53 819 l 25
 209 819 l 25
 209 717 l 25
 157 717 l 25
 157 360 l 25
 617 360 l 25
EndSplineSet
EndChar

StartChar: seven
Encoding: 55 55 50
Width: 670
Flags: HW
LayerCount: 2
Back
Fore
SplineSet
183.5 663 m 25
 81.5 663 l 25
 81.5 816 l 25
 588.5 816 l 25
 588.5 518 l 18
 588.5 396 495.467 389.967 429.5 324 c 0
 384.5 279 384.5 246.39 384.5 192 c 26
 384.5 0 l 25
 286.5 0 l 25
 286.5 192 l 18
 286.5 378 339.5 378 378.5 411 c 0
 434.41 458.309 482.5 474 482.5 518 c 10
 482.5 717 l 25
 183.5 717 l 25
 183.5 663 l 25
EndSplineSet
EndChar

StartChar: eight
Encoding: 56 56 51
Width: 670
Flags: HW
LayerCount: 2
Back
Fore
SplineSet
516 357 m 25
 155 357 l 25
 155 108 l 25
 516 108 l 25
 516 357 l 25
411 717 m 25
 261 717 l 25
 261 462 l 25
 411 462 l 25
 411 717 l 25
55 0 m 25
 55 462 l 25
 155 462 l 25
 155 816 l 25
 516 816 l 25
 516 462 l 25
 615 462 l 25
 615 0 l 25
 55 0 l 25
EndSplineSet
EndChar

StartChar: nine
Encoding: 57 57 52
Width: 670
Flags: HW
LayerCount: 2
Back
Fore
SplineSet
518 718 m 25
 159 718 l 25
 159 565 l 25
 518 565 l 25
 518 718 l 25
467 102 m 25
 518 102 l 25
 518 462 l 25
 53 462 l 25
 53 819 l 25
 617 819 l 25
 617 0 l 25
 467 0 l 25
 467 102 l 25
EndSplineSet
EndChar

StartChar: colon
Encoding: 58 58 53
Width: 670
Flags: HW
LayerCount: 2
Back
Fore
SplineSet
260 612 m 25
 413 612 l 25
 413 458 l 25
 261 458 l 25
 260 612 l 25
257 308 m 25
 410 308 l 25
 410 153 l 25
 258 153 l 25
 257 308 l 25
EndSplineSet
EndChar

StartChar: semicolon
Encoding: 59 59 54
Width: 670
Flags: HW
LayerCount: 2
Back
Fore
SplineSet
182 356 m 25
 488 356 l 25
 488 0 l 25
 388 0 l 25
 388 255 l 25
 182 255 l 25
 182 356 l 25
186 667 m 25
 339 667 l 25
 339 512 l 25
 187 512 l 25
 186 667 l 25
EndSplineSet
EndChar

StartChar: less
Encoding: 60 60 55
Width: 670
Flags: HW
LayerCount: 2
Back
Fore
SplineSet
53 420.794 m 25
 617 765 l 25
 617 633 l 25
 209 387 l 25
 617 138 l 25
 617 6 l 25
 53 350.206 l 25
 53 420.794 l 25
EndSplineSet
EndChar

StartChar: greater
Encoding: 62 62 56
Width: 670
Flags: HW
LayerCount: 2
Back
Fore
SplineSet
617 420.794 m 25
 617 350.206 l 25
 53 6 l 25
 53 138 l 25
 461 387 l 25
 53 633 l 25
 53 765 l 25
 617 420.794 l 25
EndSplineSet
EndChar

StartChar: equal
Encoding: 61 61 57
Width: 670
Flags: HW
LayerCount: 2
Back
Fore
SplineSet
53 513 m 25
 53 616 l 25
 617 616 l 25
 617 513 l 25
 53 513 l 25
53 306 m 25
 53 409 l 25
 617 409 l 25
 617 306 l 25
 53 306 l 25
EndSplineSet
EndChar

StartChar: question
Encoding: 63 63 58
Width: 670
Flags: HW
LayerCount: 2
Back
Fore
SplineSet
150.5 156 m 29
 150.5 253 l 30
 150.5 372.126 264.5 414 351.5 483 c 4
 415.345 533.636 507.5 591 507.5 622 c 4
 507.5 693 492.5 717 469.5 717 c 4
 417.5 717 355.742 664.722 291.5 618 c 30
 126.5 498 l 29
 60.5 565.909 l 29
 243.5 699 l 22
 368.9 790.2 420.5 822 469.5 822 c 4
 565.5 822 609.5 747 609.5 622 c 4
 609.5 534 506.672 483.879 417.5 417 c 4
 345.5 363 251.5 297 251.5 253 c 14
 251.5 156 l 29
 150.5 156 l 29
150.5 102 m 29
 251.5 102 l 29
 251.5 0 l 29
 150.5 0 l 29
 150.5 102 l 29
EndSplineSet
EndChar

StartChar: bracketright
Encoding: 93 93 59
Width: 670
Flags: HW
LayerCount: 2
Back
Fore
SplineSet
511 717 m 29
 465 717 l 29
 465 104 l 29
 511 104 l 29
 511 717 l 29
53 819 m 29
 617 819 l 29
 617 0 l 29
 53 0 l 29
 53 104 l 29
 358 104 l 29
 358 717 l 29
 53 717 l 29
 53 819 l 29
EndSplineSet
EndChar

StartChar: asciicircum
Encoding: 94 94 63
Width: 670
Flags: HW
LayerCount: 2
Back
Fore
SplineSet
334.5 807 m 29
 197 589.5 l 29
 257.666 558 l 29
 334.5 681 l 29
 412.334 559.5 l 29
 473 591 l 29
 334.5 807 l 29
EndSplineSet
EndChar

StartChar: underscore
Encoding: 95 95 64
Width: 670
Flags: HW
LayerCount: 2
Back
Fore
SplineSet
26 -152 m 25
 26 -51 l 25
 644 -51 l 25
 644 -152 l 25
 26 -152 l 25
EndSplineSet
EndChar

StartChar: grave
Encoding: 96 96 65
Width: 670
Flags: HW
LayerCount: 2
Back
Fore
SplineSet
284.75 816.5 m 29
 437.75 714 l 29
 437.75 664 l 29
 387.25 664 l 29
 232.25 765 l 29
 232.25 816.5 l 29
 284.75 816.5 l 29
EndSplineSet
EndChar

StartChar: a
Encoding: 97 97 66
Width: 670
Flags: HW
LayerCount: 2
Back
Fore
SplineSet
238.604 308 m 17
 184.604 308 157.604 276 157.604 210 c 1
 157.604 138 181.604 105 238.604 105 c 9
 408.604 105 l 17
 469.604 105 512.604 138 512.604 210 c 9
 512.604 308 l 25
 238.604 308 l 17
157.604 614 m 25
 408.604 614 l 17
 562.604 614 613.604 563 613.604 408 c 9
 613.604 210 l 17
 613.604 51 565.604 0 408.604 0 c 9
 238.604 0 l 17
 112.604 0 56.6055 52 56.6055 211 c 1
 52.1543 313.049 118.604 408 238.604 408 c 9
 512.604 408 l 17
 512.604 482 484.604 512 408.604 512 c 9
 157.604 512 l 25
 157.604 614 l 25
EndSplineSet
EndChar

StartChar: b
Encoding: 98 98 67
Width: 670
Flags: HW
LayerCount: 2
Back
Fore
SplineSet
413 513 m 9
 265 510 l 17
 190 510 161 486 161 406 c 9
 161 212 l 17
 161 132 187 105 259 105 c 9
 413 105 l 17
 490 105 517 129 517 212 c 9
 517 406 l 17
 517 486 493 513 413 513 c 9
55 818 m 25
 161 818 l 25
 161 615 l 25
 413 615 l 17
 565 615 615 555 615 406 c 9
 615 212 l 17
 615 54 568 0 413 4 c 9
 256 4 l 17
 106 0 55 51 55 212 c 9
 55 818 l 25
EndSplineSet
EndChar

StartChar: c
Encoding: 99 99 68
Width: 670
Flags: HW
LayerCount: 2
Back
Fore
SplineSet
588.5 615 m 29
 588.5 513 l 29
 357.5 507 l 30
 254.147 504.315 183.5 410.388 183.5 307 c 28
 183.5 203.022 253.558 107.7 357.5 105 c 30
 588.5 99 l 29
 588.5 0 l 29
 357.5 0 l 30
 196.498 0 81.5 145.998 81.5 307 c 28
 81.5 467.423 197.091 609.917 357.5 612 c 30
 588.5 615 l 29
EndSplineSet
EndChar

StartChar: d
Encoding: 100 100 69
Width: 670
Flags: HW
LayerCount: 2
Back
Fore
SplineSet
403.586 510 m 9
 259.586 510 l 17
 184.586 510 161.586 486 161.586 404 c 9
 161.586 208 l 17
 161.586 135 187.586 106 259.586 106 c 9
 403.586 106 l 17
 487.586 106 514.586 132 514.586 208 c 9
 514.586 404 l 17
 514.586 486 490.586 510 403.586 510 c 9
514.586 819 m 25
 616.586 819 l 25
 616.586 208 l 17
 616.586 48 577.586 0 403.586 0 c 9
 259.586 0 l 17
 115.586 0 49.5859 54 53.5859 208 c 9
 53.5859 404 l 17
 49.5859 555 118.586 612 259.586 612 c 9
 514.586 612 l 25
 514.586 819 l 25
EndSplineSet
EndChar

StartChar: e
Encoding: 101 101 70
Width: 670
Flags: HW
LayerCount: 2
Back
Fore
SplineSet
418 517 m 9
 261 517 l 17
 195 517 165 489 165 364 c 9
 516 364 l 17
 516 492 498 517 418 517 c 9
261 618 m 9
 418 618 l 17
 567 618 618 564 618 364 c 9
 618 262 l 25
 162 262 l 17
 162 129 183 104 261 104 c 9
 618 104 l 25
 618 0 l 25
 261 0 l 17
 108 0 54 78 52 262 c 9
 52 364 l 17
 54 561 114 618 261 618 c 9
EndSplineSet
EndChar

StartChar: f
Encoding: 102 102 71
Width: 670
Flags: HW
LayerCount: 2
Back
Fore
SplineSet
203.5 0 m 25
 203.5 513 l 25
 107.5 513 l 25
 107.5 615 l 25
 203.5 615 l 25
 203.5 666 l 17
 203.5 762 259.5 816 361.5 816 c 9
 562.5 816 l 25
 561.5 717 l 25
 363.5 717 l 17
 322.5 717 307.5 699 307.5 660 c 9
 307.5 615 l 25
 463.5 615 l 25
 463.5 513 l 25
 307.5 513 l 25
 307.5 0 l 25
 203.5 0 l 25
EndSplineSet
EndChar

StartChar: g
Encoding: 103 103 72
Width: 670
Flags: HW
LayerCount: 2
Back
Fore
SplineSet
410.5 503 m 9
 262.5 506 l 17
 187.5 506 157.5 485 157.5 409 c 9
 157.5 219 l 17
 157.5 132 187.5 111 262.5 111 c 9
 410.5 105 l 17
 496.5 105 514.5 135 514.5 207 c 9
 514.5 409 l 17
 514.5 479 484.5 503 410.5 503 c 9
617.5 0 m 17
 617.5 -198 562.5 -252 410.5 -252 c 9
 109.5 -252 l 25
 109.5 -153 l 25
 410.5 -153 l 17
 487.5 -153 514.5 -126 514.5 0 c 9
 262.5 0 l 17
 109.5 0 52.5 57 52.5 195 c 9
 52.5 409 l 17
 52.5 551 112.5 607 262.5 607 c 9
 617.5 607 l 25
 617.5 0 l 17
EndSplineSet
EndChar

StartChar: h
Encoding: 104 104 73
Width: 670
Flags: HW
LayerCount: 2
Back
Fore
SplineSet
55.5 817 m 25
 158.5 817 l 25
 158.5 501 l 17
 157.5 540 265.5 615 361.5 615 c 9
 458.5 615 l 17
 562.5 615 614.5 561 614.5 456 c 9
 614.5 4 l 25
 511.5 4 l 25
 511.5 456 l 17
 511.5 501 502.5 512 458.5 512 c 9
 361.5 512 l 17
 247.5 512 158.5 426 158.5 363 c 9
 158.5 4 l 25
 55.5 4 l 25
 55.5 817 l 25
EndSplineSet
EndChar

StartChar: j
Encoding: 106 106 75
Width: 670
Flags: HW
LayerCount: 2
Back
Fore
SplineSet
387.5 820 m 25
 539.5 820 l 25
 539.5 667 l 25
 387.5 667 l 25
 387.5 820 l 25
437.5 507 m 25
 233.5 507 l 25
 233.5 611 l 25
 539.5 611 l 25
 539.5 -52 l 17
 539.5 -159 494.5 -204 387.5 -204 c 9
 289.5 -204 l 17
 176.5 -204 130.5 -159 130.5 -52 c 9
 130.5 0 l 25
 233.5 0 l 25
 233.5 -52 l 17
 233.5 -84 251.5 -99 289.5 -99 c 9
 387.5 -99 l 17
 422.5 -99 437.5 -75 437.5 -52 c 9
 437.5 507 l 25
EndSplineSet
EndChar

StartChar: k
Encoding: 107 107 76
Width: 670
Flags: HW
LayerCount: 2
Back
Fore
SplineSet
613 4 m 25
 454 4 l 25
 251 207 l 25
 157 207 l 25
 157 4 l 25
 57 4 l 25
 57 816 l 25
 157 816 l 25
 157 316.355 l 29
 455 612 l 25
 563 612 l 25
 563 553 l 25
 314 304 l 25
 613 4 l 25
EndSplineSet
EndChar

StartChar: l
Encoding: 108 108 77
Width: 670
Flags: HW
HStem: 0 104<105 510> 714 102<105 359>
VStem: 251 108<104 816>
LayerCount: 2
Back
Fore
SplineSet
132.5 816 m 25
 386.5 816 l 25
 386.5 104 l 25
 537.5 104 l 25
 537.5 0 l 25
 132.5 0 l 25
 132.5 104 l 25
 278.5 104 l 25
 278.5 714 l 25
 132.5 714 l 25
 132.5 816 l 25
EndSplineSet
EndChar

StartChar: m
Encoding: 109 109 78
Width: 670
Flags: HW
LayerCount: 2
Back
Fore
SplineSet
79.5 0 m 29
 79.5 613 l 29
 182.5 613 l 29
 182.5 513 l 21
 182.5 585 206.5 613 285.5 613 c 13
 590.5 613 l 29
 590.5 0 l 29
 485.5 0 l 29
 485.5 466 l 21
 407.5 466 387.5 447 387.5 356 c 13
 387.5 0 l 29
 285.5 0 l 29
 285.5 466 l 21
 212.5 466 182.5 438 182.5 356 c 13
 182.5 0 l 29
 79.5 0 l 29
EndSplineSet
EndChar

StartChar: n
Encoding: 110 110 79
Width: 670
Flags: HW
HStem: 0 21G<54 157 512 614> 510 102<358 581.5>
VStem: 54 103<0 612> 512 102<0 558>
LayerCount: 2
Back
Fore
SplineSet
513 0 m 29
 513 510 l 21
 435 510 359 510 359 510 c 21
 286 510 158 438 158 356 c 13
 158 0 l 29
 55 0 l 29
 55 612 l 29
 158 612 l 29
 158 469 l 21
 158 541 280 612 359 612 c 13
 563 612 l 21
 602 612 615 594 615 558 c 13
 615 0 l 29
 513 0 l 29
EndSplineSet
EndChar

StartChar: o
Encoding: 111 111 80
Width: 670
Flags: HW
LayerCount: 2
Back
Fore
SplineSet
417 514 m 13
 262 514 l 21
 182 514 164 495 164 412 c 13
 164 196 l 21
 164 126 191 101 262 101 c 13
 417 101 l 21
 497 101 518 126 518 196 c 13
 518 412 l 21
 518 492 491 514 417 514 c 13
262 612 m 13
 417 612 l 21
 563 612 617 558 617 412 c 13
 617 196 l 21
 617 54 569 0 417 0 c 13
 262 0 l 21
 113 0 53 51 53 196 c 13
 53 412 l 21
 53 558 110 612 262 612 c 13
EndSplineSet
EndChar

StartChar: p
Encoding: 112 112 81
Width: 670
Flags: HW
LayerCount: 2
Back
Fore
SplineSet
358 516 m 13
 311 516 l 21
 205 516 159 459 159 358 c 13
 159 256 l 21
 159 150 211 105 311 105 c 13
 358 105 l 21
 478 105 513 150 513 256 c 13
 513 358 l 21
 513 462 463 516 358 516 c 13
55 -204 m 29
 55 615 l 29
 159 615 l 29
 159 516 l 21
 159 594 214 615 311 615 c 13
 358 615 l 21
 553 615 615 558 615 358 c 13
 615 256 l 21
 615 60 571 0 358 0 c 13
 159 0 l 29
 159 -204 l 29
 55 -204 l 29
EndSplineSet
EndChar

StartChar: q
Encoding: 113 113 82
Width: 670
Flags: HW
LayerCount: 2
Back
Fore
SplineSet
312 516 m 9
 359 516 l 17
 465 516 511 459 511 358 c 9
 511 256 l 17
 511 150 459 105 359 105 c 9
 312 105 l 17
 192 105 157 150 157 256 c 9
 157 358 l 17
 157 462 207 516 312 516 c 9
312 615 m 21
 117 615 55 558 55 358 c 9
 55 256 l 17
 55 60 99 0 312 0 c 9
 511 0 l 25
 511 -204 l 25
 615 -204 l 25
 615 615 l 25
 312 615 l 21
EndSplineSet
EndChar

StartChar: r
Encoding: 114 114 83
Width: 670
Flags: HW
LayerCount: 2
Back
Fore
SplineSet
77 0 m 25
 77 611 l 25
 187 611 l 25
 187 462 l 17
 187 591 218 611 339 611 c 9
 433 611 l 17
 533 611 593 552 593 412 c 9
 500 412 l 17
 500 489 479 514 433 514 c 9
 339 514 l 17
 236 514 187 450 187 360 c 9
 187 0 l 25
 77 0 l 25
EndSplineSet
EndChar

StartChar: s
Encoding: 115 115 84
Width: 670
Flags: HW
LayerCount: 2
Back
Fore
SplineSet
308 516 m 4
 294.661 515.961 223.012 514.371 179.539 489.879 c 4
 169.308 484.114 161.617 477.606 162 472 c 4
 168.339 379.198 277.805 366.485 308 366 c 4
 556.877 362.001 600.862 248.378 599 170 c 4
 598.53 150.229 598.046 107.549 543.838 66.334 c 4
 475.182 14.1328 360.12 3.70801 308 4 c 4
 220.93 4.48828 190.59 12.0068 90.8027 58.7158 c 5
 133.197 149.284 l 5
 221.728 107.845 237.92 104.312 308 104 c 4
 378.663 103.685 450.919 121.308 483.313 145.938 c 4
 496.617 156.053 498.855 160.277 499 170 c 4
 500.003 237.626 424.846 264.757 308 266 c 4
 226.967 266.862 72.333 306.462 62 472 c 4
 60.3457 498.508 72.335 544.259 130.454 577.003 c 4
 191.032 611.133 272.311 615.786 308 616 c 4
 418.893 616.664 472.95 607.369 569.005 567.823 c 5
 528.995 476.177 l 5
 447.801 509.604 407.373 516.289 308 516 c 4
EndSplineSet
EndChar

StartChar: t
Encoding: 116 116 85
Width: 670
Flags: HW
HStem: 3 101<398 525> 513 103<162 260 370 626>
VStem: 260 110<156 513 616 764> 574 96<94.5 204>
LayerCount: 2
Back
Fore
SplineSet
179 764 m 25
 289 764 l 25
 289 616 l 25
 545 616 l 25
 545 513 l 25
 289 513 l 25
 289 156 l 17
 289 126 297 104 337 104 c 9
 444 104 l 17
 486 104 493 120 493 156 c 9
 493 204 l 25
 589 204 l 25
 589 156 l 17
 589 33 540 0 444 3 c 9
 337 3 l 17
 243 0 179 39 179 156 c 9
 179 513 l 25
 81 513 l 25
 81 616 l 25
 179 616 l 25
 179 764 l 25
EndSplineSet
EndChar

StartChar: u
Encoding: 117 117 86
Width: 670
Flags: HW
LayerCount: 2
Back
Fore
SplineSet
311.5 102 m 17
 384.5 102 512.5 174 512.5 256 c 9
 512.5 612 l 29
 615.5 612 l 29
 615.5 0 l 25
 512.5 0 l 25
 512.5 143 l 17
 512.5 71 390.5 0 311.5 0 c 9
 213.5 0 l 17
 108.5 0 54.5 54 54.5 156 c 9
 55.5 612 l 29
 158.5 612 l 29
 158.5 156 l 17
 158.5 120 174.5 102 213.5 102 c 9
 311.5 102 l 17
EndSplineSet
EndChar

StartChar: v
Encoding: 118 118 87
Width: 670
Flags: HW
LayerCount: 2
Back
Fore
SplineSet
53 614 m 25
 160 614 l 25
 160 460 l 25
 335 162 l 25
 514 460 l 25
 514 614 l 25
 617 614 l 25
 617 411 l 25
 372 0 l 25
 297 0 l 25
 53 411 l 25
 53 614 l 25
EndSplineSet
EndChar

StartChar: w
Encoding: 119 119 88
Width: 670
Flags: HW
LayerCount: 2
Back
Fore
SplineSet
80 612 m 25
 182 612 l 25
 182 164 l 17
 182 126 197 106 227 106 c 9
 284 106 l 25
 284 407 l 25
 385 407 l 25
 385 106 l 25
 437 106 l 17
 482 106 491 123 491 164 c 9
 491 612 l 25
 590 612 l 25
 590 164 l 17
 590 54 545 0 437 0 c 9
 227 0 l 21
 134 0 80 57 80 164 c 13
 80 612 l 25
EndSplineSet
EndChar

StartChar: x
Encoding: 120 120 89
Width: 670
Flags: HW
LayerCount: 2
Back
SplineSet
72 12 m 29
 561 519 l 29
 498 621 l 29
 9 114 l 29
 72 12 l 29
63 612 m 29
 561 114 l 29
 492 9 l 29
 -6 507 l 29
 63 612 l 29
EndSplineSet
Fore
SplineSet
334.5 228 m 29
 122.5 0 l 25
 52.5 0 l 25
 52.5 117 l 25
 248.5 312 l 25
 52.5 513 l 25
 52.5 618 l 25
 122.5 618 l 25
 334.5 393 l 29
 554.5 618 l 25
 617.5 618 l 25
 617.5 519 l 25
 410.5 312 l 25
 617.5 123 l 25
 617.5 0 l 25
 554.5 0 l 25
 334.5 228 l 29
EndSplineSet
EndChar

StartChar: y
Encoding: 121 121 90
Width: 670
Flags: HW
LayerCount: 2
Back
SplineSet
237 75 m 29
 -38.4834 495 l 29
465 465 m 25
 213 12 l 25
EndSplineSet
Fore
SplineSet
210.5 -201 m 9
 54.5 -200 l 25
 54.5 -102 l 25
 210.5 -102 l 17
 255.5 -102 260.5 -63 276.5 -24 c 9
 309.5 45 l 25
 54.5 425 l 25
 54.5 612 l 25
 165.5 612 l 25
 165.5 462 l 25
 366.5 156 l 25
 516.5 462 l 25
 516.5 612 l 25
 615.5 612 l 25
 615.5 425 l 25
 399.5 -21 l 17
 333.5 -150 351.5 -201 210.5 -201 c 9
EndSplineSet
EndChar

StartChar: z
Encoding: 122 122 91
Width: 670
Flags: HW
LayerCount: 2
Back
Fore
SplineSet
53 615 m 25
 614 615 l 25
 614 516 l 25
 203 105 l 25
 617 105 l 25
 617 0 l 25
 53 0 l 25
 53 111 l 29
 473 510 l 25
 53 510 l 25
 53 615 l 25
EndSplineSet
EndChar

StartChar: braceleft
Encoding: 123 123 92
Width: 670
Flags: HW
LayerCount: 2
Back
Fore
SplineSet
286.5 819 m 29
 591.5 819 l 29
 591.5 717 l 29
 388.5 717 l 29
 388.5 462 l 29
 336.5 462 l 29
 336.5 358 l 29
 388.5 358 l 29
 388.5 102 l 29
 591.5 102 l 29
 591.5 0 l 29
 286.5 0 l 29
 286.5 358 l 29
 78.5 358 l 29
 78.5 462 l 29
 286.5 462 l 29
 286.5 819 l 29
EndSplineSet
EndChar

StartChar: bar
Encoding: 124 124 93
Width: 670
Flags: HW
LayerCount: 2
Back
Fore
SplineSet
286.5 820 m 25
 383.5 820 l 25
 383.5 -2 l 25
 286.5 -2 l 25
 286.5 820 l 25
EndSplineSet
EndChar

StartChar: asciitilde
Encoding: 126 126 94
Width: 670
Flags: HW
LayerCount: 2
Back
Fore
SplineSet
224 424 m 0
 343.217 418.297 365.633 350.98 436 352 c 0
 449.306 352.193 454.916 352.509 468.591 367.074 c 0
 478.007 377.102 494.593 399.623 508.835 415.448 c 1
 583.165 348.552 l 1
 565.766 329.22 558.65 316.898 541.494 298.626 c 0
 497.879 252.172 457.857 252.35 436 252 c 0
 333.428 250.358 299.256 319.136 224 324 c 0
 216.163 324.507 215.074 322.878 206.294 311.202 c 0
 179.245 275.23 194.529 291.554 159.355 252.645 c 1
 88.6447 323.355 l 1
 113.134 350.446 104.375 342.052 126.369 371.302 c 0
 138.485 387.414 165.488 426.799 224 424 c 0
EndSplineSet
EndChar

StartChar: exclamdown
Encoding: 161 161 96
Width: 670
Flags: HW
LayerCount: 2
Fore
SplineSet
402 657 m 1
 266 657 l 1
 266 817 l 1
 402 817 l 1
 402 657 l 1
404 4 m 1
 270 4 l 9
 270 579 l 17
 338 535 402.285 501.021 403 298 c 0
 404 14 402 8 404 4 c 1
EndSplineSet
EndChar

StartChar: acute
Encoding: 180 180 98
Width: 670
Flags: HW
LayerCount: 2
Fore
SplineSet
385.25 816.5 m 25
 437.75 816.5 l 25
 437.75 765 l 25
 282.75 664 l 25
 232.25 664 l 25
 232.25 714 l 25
 385.25 816.5 l 25
EndSplineSet
EndChar

StartChar: dieresis
Encoding: 168 168 99
Width: 670
Flags: HW
LayerCount: 2
Back
Fore
SplineSet
384 818 m 25
 384 919 l 29
 487 919 l 29
 487 818 l 25
 384 818 l 25
183 818 m 25
 183 919 l 29
 286 919 l 29
 286 818 l 25
 183 818 l 25
EndSplineSet
EndChar

StartChar: degree
Encoding: 176 176 149
Width: 670
Flags: HW
LayerCount: 2
Back
Fore
SplineSet
376 769 m 13
 285 769 l 21
 249 769 234 756 234 720 c 13
 234 622 l 21
 234 576 246 564 285 564 c 13
 376 564 l 21
 417 564 434 579 434 622 c 13
 434 720 l 21
 434 750 420 769 376 769 c 13
184 720 m 21
 184 795 207 815 285 815 c 13
 376 815 l 21
 456 815 486 789 486 720 c 13
 486 622 l 21
 486 537 459 512 376 512 c 13
 285 512 l 21
 216 512 184 546 184 622 c 13
 184 720 l 21
EndSplineSet
EndChar

StartChar: cedilla
Encoding: 184 184 150
Width: 670
Flags: HW
LayerCount: 2
Back
Fore
SplineSet
477.5 -136 m 25,0,0
411.5 -100 m 1,0,0
 411.5 -179 395.5 -205 308.5 -205 c 9,0,0
 258.5 -205 l 25,0,0
 258.5 -153 l 25,0,0
 308.5 -153 l 18,0,0
 347.5 -153 358.5 -129.957 358.5 -101 c 24,0,0
 358.5 -72.8496 340.5 -52 308.5 -52 c 9,0,0
 308.5 0 l 17,0,0
 396.5 0 411.5 -22 411.5 -100 c 1,0,0
EndSplineSet
EndChar

StartChar: dotlessi
Encoding: 305 305 155
Width: 670
Flags: W
HStem: 4 100<159 563> 461 102<159 413>
VStem: 308 105<104 563>
LayerCount: 2
Fore
SplineSet
159 563 m 25
 413 563 l 25
 413 104 l 25
 563 104 l 25
 563 4 l 25
 159 4 l 25
 159 104 l 25
 308 104 l 25
 308 461 l 25
 159 461 l 25
 159 563 l 25
EndSplineSet
EndChar

StartChar: divide
Encoding: 247 247 220
Width: 670
Flags: HW
LayerCount: 2
Back
Fore
SplineSet
284.5 204 m 25
 389.5 203 l 25
 389.5 101 l 25
 284.5 101 l 25
 284.5 204 l 25
284.5 613 m 25
 389.5 612 l 25
 389.5 510 l 25
 284.5 510 l 25
 284.5 613 l 25
78.5 306 m 25
 78.5 409 l 25
 591.5 409 l 25
 591.5 306 l 25
 78.5 306 l 25
EndSplineSet
EndChar

StartChar: Dcroat
Encoding: 272 272 222
Width: 670
Flags: HW
LayerCount: 2
Back
Fore
SplineSet
258 103 m 22
 350.523 95.29 413 241 414 405 c 4
 415.14 592.039 353.638 726.72 249 718 c 14
 210 718 l 29
 210 459 l 29
 312 459 l 29
 312 360 l 29
 210 360 l 29
 210 103 l 29
 258 103 l 22
0 718 m 29
 1 818 l 29
 300 819 l 30
 485.351 819.62 525.182 588.003 528 402 c 4
 531 204 475.406 0 294 0 c 30
 2 0 l 21
 4 103 l 13
 104 103 l 29
 104 360 l 29
 0 360 l 29
 0 459 l 29
 104 459 l 29
 104 718 l 29
 0 718 l 29
EndSplineSet
EndChar

StartChar: germandbls
Encoding: 223 223 223
Width: 670
Flags: HW
LayerCount: 2
Back
Fore
SplineSet
263 409 m 25
 263 508 l 25
 417 508 l 25
 462 549 l 25
 462 656 l 25
 417 710 l 25
 274 710 l 17
 226 708 211 693 210 656 c 9
 210 -54 l 25
 106 -54 l 25
 106 656 l 17
 106 795 130 812 274 812 c 9
 417 812 l 17
 535 812 564 753 564 656 c 9
 564 549 l 17
 564 483 526 453 462 453 c 1
 553 453 564 393 564 339 c 9
 564 254 l 17
 564 150 520 100 417 100 c 9
 241 100 l 17
 241 153 268 198 417 198 c 1
 463 198 462 204 462 254 c 9
 462 339 l 25
 417 409 l 25
 263 409 l 25
EndSplineSet
EndChar

StartChar: multiply
Encoding: 215 215 224
Width: 670
Flags: HW
LayerCount: 2
Back
Fore
SplineSet
79 0 m 25
 335 255 l 25
 591 0 l 25
 643 1 l 25
 643 51 l 25
 387 308 l 25
 643 567 l 29
 643 663 l 25
 335 354 l 25
 27 662 l 25
 27 566 l 29
 285 308 l 25
 27 50 l 25
 27 0 l 25
 79 0 l 25
EndSplineSet
EndChar

StartChar: ae
Encoding: 230 230 225
Width: 670
Flags: HW
LayerCount: 2
Back
Fore
SplineSet
551.012 401 m 25,0,0
408.512 356 m 25,0,0
 494.762 356 l 17,0,0
 536.948 356 551.012 369 551.012 401 c 9,0,0
 551.012 457 l 17,0,0
 551.012 495 534.137 514 494.762 514 c 9,0,0
 446.948 514 l 17,0,0
 404.762 514 408.512 507 408.512 471 c 9,0,0
 408.512 356 l 25,0,0
265.073 252 m 25,0,0
 170.387 252 l 17,0,0
 140.387 252 122.573 234 122.573 204 c 9,0,0
 122.573 154 l 17,0,0
 170.387 101 l 9,0,0
 217.262 101 l 17,0,0
 255.698 101 265.073 121 265.073 154 c 9,0,0
 265.073 252 l 25,0,0
446.012 101 m 1,0,0
 542.573 101 545.387 213 587.573 213 c 1,0,0
 626.948 213 650.387 192 647.573 152 c 1,0,0
 647.573 51 588.512 0 494.762 0 c 1,0,0
 446.012 0 l 1,0,0
 354.137 0 320.387 15 320.387 101 c 1,0,0
 320.387 21 292.262 0 217.262 0 c 9,0,0
 170.387 0 l 17,0,0
 52.2617 0 22.2617 40 22.2617 154 c 9,0,0
 22.2617 198 l 17,0,0
 22.2617 315 71.9492 356 170.387 356 c 1,0,0
 235.073 356 265.073 380 265.073 457 c 0,0,0
 265.073 500 262.262 514 217.262 514 c 0,0,0
 152.573 514 122.573 470 122.573 401 c 9,0,0
 22.2617 401 l 25,0,0
 22.2617 457 l 17,0,0
 20.0059 557.688 78.5117 614 216.323 614 c 1,0,0
 292.262 614 320.387 588 320.387 514 c 1,0,0
 320.387 588 342.887 614 452.573 614 c 9,0,0
 494.762 614 l 17,0,0
 580.073 614 650.387 554 647.573 457 c 9,0,0
 647.573 401 l 17,0,0
 650.387 278 591.323 252 494.762 252 c 9,0,0
 446.012 252 l 17,0,0
 418.823 252 408.512 213 408.512 213 c 25,0,0
 408.512 154 l 17,0,0
 408.512 118 416.012 101 446.012 101 c 1,0,0
EndSplineSet
EndChar

StartChar: eth
Encoding: 240 240 226
Width: 670
Flags: HW
LayerCount: 2
Back
Fore
SplineSet
417 514 m 9
 262 514 l 17
 182 514 164 495 164 412 c 9
 164 196 l 17
 164 126 191 101 262 101 c 9
 417 101 l 17
 497 101 518 126 518 196 c 9
 518 412 l 17
 518 492 491 514 417 514 c 9
617 412 m 9
 617 196 l 17
 617 54 569 0 417 0 c 9
 262 0 l 17
 113 0 53 51 53 196 c 9
 53 412 l 17
 53 558 110 612 262 612 c 9
 443 612 l 25
 320 735 l 25
 242 657 l 25
 197 705 l 25
 272 780 l 25
 125 936 l 29
 167 978 l 25
 323 825 l 25
 431 930 l 25
 476 876 l 25
 374 774 l 25
 536 618 l 26
 536 618 617 573 617 412 c 9
EndSplineSet
EndChar

StartChar: oslash
Encoding: 248 248 227
Width: 670
Flags: HW
LayerCount: 2
Fore
SplineSet
482 519 m 26
 515.524 552.524 560 591 599 552 c 0
 641 510 598.618 464.065 563 429 c 26
 176 48 l 26
 147.348 19.792 101 0 74 33 c 0
 48.1221 64.6289 69.1035 106.104 98 135 c 26
 482 519 l 26
417 514 m 9
 262 514 l 17
 182 514 164 495 164 412 c 9
 164 196 l 17
 164 126 191 101 262 101 c 9
 417 101 l 17
 497 101 518 126 518 196 c 9
 518 412 l 17
 518 492 491 514 417 514 c 9
262 612 m 9
 417 612 l 17
 563 612 617 558 617 412 c 9
 617 196 l 17
 617 54 569 0 417 0 c 9
 262 0 l 17
 113 0 53 51 53 196 c 9
 53 412 l 17
 53 558 110 612 262 612 c 9
EndSplineSet
EndChar

StartChar: thorn
Encoding: 254 254 228
Width: 670
Flags: HW
LayerCount: 2
Back
Fore
SplineSet
439.5 566 m 13
 284.5 566 l 21
 204.5 566 184.5 547 184.5 464 c 13
 184.5 248 l 21
 184.5 178 213.5 153 284.5 153 c 13
 439.5 153 l 21
 519.5 153 540.5 178 540.5 248 c 13
 540.5 464 l 21
 540.5 544 513.5 566 439.5 566 c 13
184.5 665 m 29
 439.5 664 l 21
 585.5 664 639.5 610 639.5 464 c 13
 639.5 248 l 21
 639.5 106 591.5 52 439.5 52 c 13
 184.5 53 l 21
 184.5 53 184.579 -100 184.5 -100 c 13
 234.5 -100 l 29
 234.5 -202 l 29
 30.5 -202 l 29
 30.5 -100 l 29
 75.5 -100 l 29
 75.5 821 l 29
 184.5 821 l 29
 184.5 665 l 29
EndSplineSet
EndChar

StartChar: Thorn
Encoding: 222 222 229
Width: 670
Flags: HW
LayerCount: 2
Fore
SplineSet
439.5 564 m 9
 284.5 564 l 17
 204.5 564 184.5 545 184.5 462 c 9
 184.5 246 l 17
 184.5 176 213.5 151 284.5 151 c 9
 439.5 151 l 17
 519.5 151 540.5 176 540.5 246 c 9
 540.5 462 l 17
 540.5 542 513.5 564 439.5 564 c 9
184.5 663 m 25
 439.5 662 l 17
 585.5 662 639.5 608 639.5 462 c 9
 639.5 246 l 17
 639.5 104 591.5 50 439.5 50 c 9
 184.5 51 l 17
 184.5 51 184.579 -1 184.5 -1 c 9
 234.5 -1 l 25
 234.5 -103 l 25
 30.5 -103 l 25
 30.5 -1 l 25
 75.5 -1 l 25
 75.5 751 l 25
 184.5 751 l 25
 184.5 663 l 25
EndSplineSet
EndChar

StartChar: cent
Encoding: 162 162 230
Width: 670
Flags: HW
LayerCount: 2
Back
Fore
SplineSet
590.5 612 m 25
 590.5 510 l 25
 332.5 510 l 26
 234.752 510 185.5 404.748 185.5 307 c 24
 185.5 208.619 234.119 102 332.5 102 c 26
 590.5 102 l 25
 590.5 0 l 25
 433.5 0 l 25
 433.5 -102 l 25
 332.5 -102 l 25
 332.5 0 l 17
 153.5 0 79.5 151.852 79.5 307 c 24
 79.5 461.547 162.5 612 332.5 612 c 9
 332.5 714 l 25
 433.5 714 l 25
 433.5 612 l 25
 590.5 612 l 25
EndSplineSet
EndChar

StartChar: yen
Encoding: 165 165 231
Width: 670
Flags: HW
LayerCount: 2
Back
Fore
SplineSet
435.5 0 m 29
 435.5 56 l 25
 384.5 56 l 25
 384.5 155 l 25
 589.5 155 l 25
 589.5 261 l 25
 384.5 261 l 25
 384.5 356 l 25
 589.5 356 l 25
 589.5 459 l 25
 436.5 459 l 25
 589.5 619 l 25
 589.5 816 l 25
 491.5 816 l 25
 491.5 670 l 25
 332.5 511 l 25
 176.5 670 l 25
 176.5 816 l 25
 80.5 816 l 25
 80.5 619 l 25
 231.5 459 l 25
 80.5 459 l 25
 80.5 356 l 25
 283.5 356 l 25
 283.5 261 l 25
 80.5 261 l 25
 80.5 155 l 25
 283.5 155 l 25
 283.5 56 l 25
 232.5 56 l 25
 232.5 0 l 25
 435.5 0 l 29
EndSplineSet
EndChar

StartChar: sterling
Encoding: 163 163 232
Width: 670
Flags: HW
LayerCount: 2
Back
Fore
SplineSet
231.437 0 m 17
 141.437 0 102.437 31 102.437 106 c 1
 102.437 208 204.437 237 204.437 306 c 9
 102.437 306 l 25
 102.437 411 l 25
 204.437 411 l 25
 204.437 564 l 17
 204.437 663 270.437 716 363.437 716 c 9
 519.437 716 l 25
 519.437 615 l 25
 366.437 615 l 17
 327.437 615 310.437 606 310.437 564 c 9
 310.437 411 l 25
 414.437 411 l 25
 414.437 306 l 25
 310.437 306 l 17
 310.437 159 231.437 163 231.437 106 c 9
 468.437 106 l 17
 522.437 106 536.54 135.1 567.437 150 c 9
 567.437 54 l 17
 570.437 51 519.437 0 468.437 0 c 9
 231.437 0 l 17
EndSplineSet
EndChar

StartChar: currency
Encoding: 164 164 233
Width: 670
Flags: HW
LayerCount: 2
Back
Fore
SplineSet
332 456 m 24
 308.776 456 293 434.224 293 411 c 24
 293 386.88 307.88 363 332 363 c 24
 359.312 363 383 383.688 383 411 c 24
 383 437.525 358.525 456 332 456 c 24
248 456 m 9
 182 522 l 25
 223 563 l 25
 287 500 l 17
 318.667 532.133 350.333 525.976 382 501 c 9
 446 564 l 25
 487 523 l 25
 421 457 l 21
 441.475 420.757 442.727 388.245 422 360 c 13
 488 294 l 25
 447 253 l 25
 383 316 l 17
 351.333 297.947 319.667 291.337 288 317 c 9
 224 254 l 25
 183 295 l 25
 249 361 l 17
 219.389 396.758 220.36 428.243 248 456 c 9
EndSplineSet
EndChar

StartChar: brokenbar
Encoding: 166 166 234
Width: 670
Flags: HW
LayerCount: 2
Back
Fore
SplineSet
286.5 819 m 25
 383.5 819 l 25
 383.5 509 l 25
 286.5 509 l 25
 286.5 819 l 25
286.5 308 m 25
 383.5 308 l 25
 383.5 -2 l 25
 286.5 -2 l 25
 286.5 308 l 25
EndSplineSet
EndChar

StartChar: section
Encoding: 167 167 235
Width: 670
Flags: HW
LayerCount: 2
Back
Fore
SplineSet
380.5 515 m 9
 283.5 515 l 17
 247.5 515 234.5 502 234.5 466 c 9
 234.5 368 l 17
 234.5 322 244.5 310 283.5 310 c 9
 380.5 310 l 17
 421.5 310 434.5 325 434.5 368 c 9
 434.5 466 l 17
 434.5 496 424.5 515 380.5 515 c 9
283.5 258 m 17
 214.5 258 181.5 292 181.5 368 c 9
 181.5 661 l 17
 181.5 790 211.5 818 283.5 818 c 9
 488.5 818 l 25
 488.5 766 l 25
 283.5 766 l 17
 245.5 766 232.5 750 232.5 662 c 9
 232.5 562 l 25
 380.5 562 l 17
 460.5 562 485.5 535 485.5 466 c 9
 485.5 159 l 17
 485.5 30 452.5 2 380.5 2 c 9
 181.5 2 l 25
 181.5 54 l 25
 380.5 54 l 17
 418.5 54 434.5 70 434.5 158 c 9
 434.5 258 l 25
 283.5 258 l 17
EndSplineSet
EndChar

StartChar: copyright
Encoding: 169 169 236
Width: 670
Flags: HW
LayerCount: 2
Back
Fore
SplineSet
326.169 635.371 m 4
 301.657 634.93 268.613 620.388 269.35 518.936 c 4
 269.911 441.107 282.946 383.711 337.346 383.87 c 4
 343.741 383.888 367.691 383.35 383.847 391.287 c 4
 390.152 394.387 395.253 398.877 397.086 408.659 c 4
 397.587 411.338 397.893 414.556 397.893 418.335 c 6
 397.893 443.483 l 5
 448.193 443.483 l 5
 448.193 418.335 l 6
 448.193 411.887 447.682 405.57 446.524 399.396 c 4
 442.119 375.885 427.509 356.696 406.028 346.142 c 4
 381.911 334.292 357.864 333.669 337.346 333.569 c 4
 242.708 333.105 219.994 420.831 219.047 518.936 c 4
 218.359 590.147 235.425 682.711 326.169 685.67 c 4
 343.061 686.225 367.461 685.81 384.242 683.631 c 4
 422.208 678.701 443.68 662.244 447.579 619.273 c 4
 447.845 616.357 447.787 614.521 448.193 604.632 c 6
 448.193 579.482 l 5
 397.893 579.482 l 5
 397.893 604.632 l 6
 397.487 614.521 397.667 612.719 397.485 614.728 c 4
 396.425 626.442 395.755 631.414 377.767 633.747 c 4
 367.576 635.071 354.481 635.88 326.169 635.371 c 4
648.946 511 m 0
 647.659 326.772 496.811 201.491 335 202.574 c 0
 149.211 203.819 19.9316 350.259 21.0537 511 c 0
 22.3408 695.229 173.19 820.508 335 819.426 c 0
 520.789 818.181 650.067 671.741 648.946 511 c 0
335 768.608 m 0
 200.633 769.513 73.2363 665.87 72.1475 511 c 0
 71.2119 377.651 178.526 254.447 335 253.392 c 0
 469.368 252.486 596.764 356.13 597.854 511 c 0
 598.789 644.452 491.374 767.554 335 768.608 c 0
EndSplineSet
EndChar

StartChar: ordfeminine
Encoding: 170 170 237
Width: 670
Flags: HW
LayerCount: 2
Back
Fore
SplineSet
374 611 m 9
 294 611 l 17
 264 611 258 604 258 580 c 9
 258 548 l 17
 258 526 266 511 294 511 c 9
 374 511 l 17
 402 511 410 524 410 548 c 9
 410 580 l 17
 410 595 400 611 374 611 c 9
208 716 m 25
 208 732 l 17
 208 789 222 815 294 815 c 9
 374 815 l 17
 446 815 462 800 462 732 c 9
 462 548 l 17
 462 480 444 458 374 458 c 9
 294 458 l 17
 226 458 208 484 208 548 c 9
 208 580 l 17
 208 650 224 666 294 666 c 9
 410 666 l 25
 410 732 l 17
 410 762 398 767 374 767 c 9
 294 767 l 17
 266 767 258 758 258 732 c 9
 258 716 l 25
 208 716 l 25
208 410.5 m 5
 462 410.5 l 5
 462 357.5 l 5
 208 357.5 l 5
 208 410.5 l 5
EndSplineSet
EndChar

StartChar: guillemotleft
Encoding: 171 171 238
Width: 670
Flags: HW
LayerCount: 2
Back
Fore
SplineSet
163.63 390.315 m 5
 163.63 369.74 l 5
 381.37 152 l 5
 327.63 98.2598 l 5
 87.6299 338.26 l 5
 87.6299 421.685 l 5
 328.498 663.74 l 5
 382.37 610.132 l 5
 163.63 390.315 l 5
363.63 390.314 m 5
 363.63 369.74 l 5
 581.37 152 l 5
 527.63 98.2598 l 5
 287.63 338.26 l 5
 287.63 421.686 l 5
 528.498 663.74 l 5
 582.37 610.132 l 5
 363.63 390.314 l 5
EndSplineSet
EndChar

StartChar: logicalnot
Encoding: 172 172 239
Width: 670
Flags: HW
LayerCount: 2
Back
Fore
SplineSet
52.5 308 m 25
 52.5 409 l 25
 617.5 409 l 25
 617.5 207 l 25
 514.5 207 l 25
 514.5 308 l 25
 52.5 308 l 25
EndSplineSet
EndChar

StartChar: uni00AD
Encoding: 173 173 240
Width: 670
Flags: HW
LayerCount: 2
Back
Fore
SplineSet
53 306 m 29
 53 409 l 29
 617 409 l 29
 617 306 l 29
 53 306 l 29
EndSplineSet
EndChar

StartChar: registered
Encoding: 174 174 241
Width: 670
Flags: HW
LayerCount: 2
Back
Fore
SplineSet
229.25 677.625 m 29
 346.75 677.625 l 21
 440.5 677.625 456.75 647.625 456.75 572.625 c 13
 456.75 341.375 l 29
 403 341.375 l 29
 403 395.125 l 21
 403 442.625 396.75 455.125 346.75 455.125 c 13
 290.5 455.125 l 29
 290.5 341.375 l 29
 229.25 341.375 l 29
 229.25 677.625 l 29
346.75 621.375 m 13
 290.5 621.375 l 29
 290.5 508.875 l 29
 403 508.875 l 29
 403 572.625 l 21
 403 607.625 393 621.182 346.75 621.375 c 13
648.946 511 m 0
 647.659 326.772 496.811 201.491 335 202.574 c 0
 149.211 203.819 19.9316 350.259 21.0537 511 c 0
 22.3408 695.229 173.19 820.508 335 819.426 c 0
 520.789 818.181 650.067 671.741 648.946 511 c 0
335 768.608 m 0
 200.633 769.513 73.2363 665.87 72.1475 511 c 0
 71.2119 377.651 178.526 254.447 335 253.392 c 0
 469.368 252.486 596.764 356.13 597.854 511 c 0
 598.789 644.452 491.374 767.554 335 768.608 c 0
EndSplineSet
EndChar

StartChar: macron
Encoding: 175 175 242
Width: 670
Flags: HW
LayerCount: 2
Back
Fore
SplineSet
53 716 m 25
 53 819 l 25
 617 819 l 25
 617 716 l 25
 53 716 l 25
EndSplineSet
EndChar

StartChar: uni00B2
Encoding: 178 178 243
Width: 670
Flags: HW
LayerCount: 2
Back
Fore
SplineSet
206.26 590 m 6
 203.953 689.182 262.698 712.191 332.26 713 c 4
 403.452 713.827 410.796 736.652 411.26 788 c 4
 411.942 863.462 385.868 867.243 332.26 868 c 4
 295.545 868.518 257.273 868 209.26 868 c 5
 209.26 918 l 5
 257.273 918 295.545 918.551 332.26 918 c 4
 395.107 917.057 464.107 908.722 463.26 788 c 4
 462.872 732.668 451.891 663.804 332.26 663 c 4
 284.383 662.678 255.26 653.712 255.26 590 c 4
 255.26 510 258.26 511 332.26 511 c 4
 380.521 511 426.912 511 464.26 511 c 5
 464.26 461 l 5
 426.912 461 206.26 461 206.26 461 c 29
 205.09 511.31 206.26 590 206.26 590 c 6
EndSplineSet
EndChar

StartChar: uni00B3
Encoding: 179 179 244
Width: 670
Flags: HW
LayerCount: 2
Back
Fore
SplineSet
207.398 918 m 5
 433.605 918 462.993 936.661 462.398 786 c 4
 462.147 722.372 460.635 676.192 397.519 667.983 c 4
 386.522 666.553 376.241 666 341.868 666 c 6
 336.397 666 l 5
 257.398 666 l 5
 257.398 716 l 5
 336.397 716 l 5
 341.691 716 l 6
 409.263 715.885 450.127 716.39 459.552 653.923 c 4
 463.338 628.836 463.4 551.159 460.832 525.826 c 4
 453.904 457.502 410.752 459 336.398 459 c 6
 207.398 459 l 5
 207.398 509 l 5
 336.398 509 l 6
 411.97 509 408.911 509.413 411.088 530.87 c 4
 412.25 542.348 413.526 623.83 410.111 646.463 c 4
 406.843 668.128 400.86 665.9 341.693 666 c 6
 336.399 666 l 5
 257.398 666 l 5
 257.398 716 l 5
 336.399 716 l 5
 341.87 716 l 6
 405.274 715.999 406.496 716.7 409.73 734.643 c 4
 413.332 754.622 413.854 824.162 409.54 846.714 c 4
 405.809 866.232 397.527 867.842 336.398 868 c 4
 290.479 868.119 264.513 868 207.398 868 c 5
 207.398 918 l 5
EndSplineSet
EndChar

StartChar: uni00B5
Encoding: 181 181 245
Width: 670
Flags: HW
LayerCount: 2
Back
Fore
SplineSet
28 562 m 25
 231 562 l 25
 231 206 l 17
 231 162 242 156 282 156 c 9
 389 156 l 17
 426 156 438 172 438 206 c 9
 438 461 l 25
 332 461 l 25
 332 562 l 25
 538 562 l 25
 538 129 l 17
 561 106 588 104 642 104 c 9
 642 3 l 17
 550 0 440 40 440 54 c 9
 282 54 l 17
 244 54 231 66 231 104 c 9
 231 -204 l 25
 128 -204 l 25
 128 461 l 25
 28 461 l 25
 28 562 l 25
EndSplineSet
EndChar

StartChar: paragraph
Encoding: 182 182 246
Width: 670
Flags: HW
LayerCount: 2
Back
Fore
SplineSet
283.5 462 m 9
 283.5 714 l 17
 224.5 714 182.5 664 182.5 590 c 1
 182.5 506 206.5 462 283.5 462 c 9
435.5 714 m 25
 387.5 714 l 25
 387.5 95 l 25
 435.5 96 l 25
 435.5 714 l 25
234.5 0 m 9
 234.5 96 l 25
 283.5 96 l 25
 283.5 360 l 17
 149.5 360 78.5 414 78.5 590 c 0
 78.5 750 145.506 819.887 282.5 819 c 10
 591.5 819 l 25
 591.5 714 l 25
 538.5 714 l 25
 538.5 96 l 25
 591.5 96 l 25
 591.5 0 l 17
 234.5 0 l 9
EndSplineSet
EndChar

StartChar: uni00B9
Encoding: 185 185 248
Width: 670
Flags: HW
LayerCount: 2
Back
Fore
SplineSet
205.5 919 m 25
 360.5 919 l 25
 360.5 513 l 25
 413.5 513 l 25
 413.5 614 l 25
 464.5 614 l 25
 464.5 460 l 25
 205.5 460 l 25
 205.5 513 l 25
 312.5 513 l 25
 312.5 867 l 25
 205.5 867 l 25
 205.5 919 l 25
EndSplineSet
EndChar

StartChar: ordmasculine
Encoding: 186 186 249
Width: 670
Flags: HW
LayerCount: 2
Back
Fore
SplineSet
120 460.5 m 1
 426 460.5 l 1
 426 407.5 l 1
 120 407.5 l 1
 120 460.5 l 1
EndSplineSet
Refer: 149 176 S 1 0 0 1 -65 0 2
EndChar

StartChar: guillemotright
Encoding: 187 187 250
Width: 670
Flags: HW
LayerCount: 2
Back
Fore
SplineSet
506.37 390.314 m 5
 506.37 369.74 l 5
 288.63 152 l 5
 342.37 98.2598 l 5
 582.37 338.26 l 5
 582.37 421.686 l 5
 341.502 663.74 l 5
 287.63 610.132 l 5
 506.37 390.314 l 5
306.37 390.314 m 5
 306.37 369.74 l 5
 88.6299 152 l 5
 142.37 98.2598 l 5
 382.37 338.26 l 5
 382.37 421.686 l 5
 141.502 663.74 l 5
 87.6299 610.132 l 5
 306.37 390.314 l 5
EndSplineSet
EndChar

StartChar: onequarter
Encoding: 188 188 251
Width: 670
Flags: HW
LayerCount: 2
Back
Fore
SplineSet
27 103 m 25
 643 719 l 25
 643 615 l 25
 27 -1 l 25
 27 103 l 25
EndSplineSet
Refer: 47 52 N 0.526316 0 0 0.500611 328.421 -114 2
Refer: 43 49 S 0.5 0 0 0.563725 34.5004 473 2
LCarets2: 2 0 0 
Ligature2: "'frac' Diagonal Fractions lookup 0 subtable" one slash four
Ligature2: "'frac' Diagonal Fractions lookup 0 subtable" one fraction four
EndChar

StartChar: onehalf
Encoding: 189 189 252
Width: 670
Flags: HW
LayerCount: 2
Back
Fore
SplineSet
22.2275 103 m 25
 638.229 719 l 25
 638.229 615 l 25
 22.2275 -1 l 25
 22.2275 103 l 25
EndSplineSet
Refer: 243 178 N 1.00186 0 0 0.890115 182.648 -518.344 2
Refer: 43 49 S 0.5 0 0 0.563725 20.7275 467 2
LCarets2: 2 0 0 
Ligature2: "'frac' Diagonal Fractions lookup 0 subtable" one slash two
Ligature2: "'frac' Diagonal Fractions lookup 0 subtable" one fraction two
EndChar

StartChar: threequarters
Encoding: 190 190 253
Width: 670
Flags: HW
LayerCount: 2
Back
Fore
SplineSet
27 103 m 25
 643 719 l 25
 643 615 l 25
 27 -1 l 25
 27 103 l 25
EndSplineSet
Refer: 244 179 N 1 0 0 1 -129 -15 2
Refer: 47 52 S 0.526316 0 0 0.500611 331.421 -81 2
LCarets2: 2 0 0 
Ligature2: "'frac' Diagonal Fractions lookup 0 subtable" three slash four
Ligature2: "'frac' Diagonal Fractions lookup 0 subtable" three fraction four
EndChar

StartChar: AE
Encoding: 198 198 254
Width: 670
Flags: HW
LayerCount: 2
Back
Fore
SplineSet
334.9 713 m 25
 274.7 459 l 25
 334.9 459 l 25
 334.9 713 l 25
644.9 814 m 29
 644.9 713 l 25
 437.9 713 l 25
 437.9 459 l 25
 539.9 459 l 25
 539.9 358 l 25
 437.9 358 l 25
 437.9 107 l 25
 642.9 108 l 25
 642.9 -1 l 25
 334.9 -1 l 25
 334.9 358 l 25
 245.9 358 l 25
 152.3 1 l 25
 25.0996 1 l 25
 267.5 814 l 29
 644.9 814 l 29
EndSplineSet
EndChar

StartChar: peseta
Encoding: 8359 8359 258
Width: 1402
Flags: HW
LayerCount: 2
Fore
SplineSet
1056 512 m 0
 1042.66 511.961 971.012 510.371 927.539 485.879 c 0
 917.308 480.114 909.617 473.606 910 468 c 0
 916.339 375.198 1025.8 362.485 1056 362 c 0
 1304.88 358.001 1348.86 244.378 1347 166 c 0
 1346.53 146.229 1346.05 103.549 1291.84 62.334 c 0
 1223.18 10.1328 1108.12 -0.291992 1056 0 c 0
 968.93 0.488281 938.59 8.00684 838.803 54.7158 c 1
 881.197 145.284 l 1
 969.728 103.845 985.92 100.312 1056 100 c 0
 1126.66 99.6846 1198.92 117.308 1231.31 141.938 c 0
 1244.62 152.053 1246.86 156.277 1247 166 c 0
 1248 233.626 1172.85 260.757 1056 262 c 0
 974.967 262.862 820.333 302.462 810 468 c 0
 808.346 494.508 820.335 540.259 878.454 573.003 c 0
 939.032 607.133 1020.31 611.786 1056 612 c 0
 1166.89 612.664 1220.95 603.369 1317 563.823 c 1
 1277 472.177 l 1
 1195.8 505.604 1155.37 512.289 1056 512 c 0
533 761 m 25
 643 761 l 25
 643 613 l 25
 809 613 l 25
 809 510 l 25
 643 510 l 25
 643 153 l 17
 643 123 651 101 691 101 c 9
 708 101 l 17
 750 101 757 117 757 153 c 9
 757 201 l 25
 853 201 l 25
 853 153 l 17
 831 27 786 15 708 0 c 1
 691 0 l 1
 597 -3 533 36 533 153 c 9
 533 510 l 25
 435 510 l 25
 435 613 l 25
 533 613 l 25
 533 761 l 25
159.5 713 m 25
 159.5 409 l 25
 235 408 l 17
 294 408 330 443 334 508 c 9
 333 613 l 17
 334 678 303 715 231 715 c 9
 159.5 713 l 25
157.5 309 m 25
 155.5 0 l 25
 54.5 0 l 25
 54.5 819 l 25
 231 819 l 17
 367 818 434 750 434 619 c 9
 435 502 l 17
 435 375 352 310 238 309 c 9
 157.5 309 l 25
EndSplineSet
EndChar

StartChar: uni2606
Encoding: 9734 9734 259
Width: 670
Flags: HW
LayerCount: 2
Fore
SplineSet
315 819 m 29
 435 588 l 29
 627 588 l 29
 471 312 l 29
 576 0 l 29
 324 225 l 29
315 819 m 25
 435 588 l 25
 627 588 l 25
 471 312 l 25
 576 0 l 25
 324 225 l 25
EndSplineSet
EndChar

StartChar: smileface
Encoding: 9786 9786 260
Width: 670
Flags: HW
LayerCount: 2
Fore
SplineSet
301.575 159.45 m 17
 251.175 159.45 224.775 176.25 225.175 237.85 c 9
 225.175 262.25 l 25
 295 261 l 25
 295.25 237.75 l 17
 295.5 220.75 302.25 214.5 319 214.75 c 9
 360 214.75 l 17
 376.75 214.5 383.5 220.75 383.75 237.75 c 9
 383.5 262.75 l 25
 449.575 263.05 l 25
 449.175 238.25 l 17
 449.575 176.65 423.175 159.85 372.775 159.85 c 9
 301.575 159.45 l 17
396 416.301 m 9
 380.5 416.301 l 17
 372.5 416.301 370.7 414.4 370.7 406.101 c 9
 370.7 384.5 l 17
 370.7 377.5 373.4 375 380.5 375 c 9
 294 375 l 17
 302 375 406.101 377.5 406.101 384.5 c 9
 406.101 406.101 l 17
 406.101 414.101 403.4 416.301 396 416.301 c 9
378.15 440.051 m 9
 401.4 440.051 l 17
 423.301 440.051 431.4 431.95 431.4 410.051 c 9
 431.4 377.65 l 17
 431.4 356.351 424.2 348.25 401.4 348.25 c 9
 378.15 348.25 l 17
 355.801 348.25 346.801 355.9 346.801 377.65 c 9
 346.801 410.051 l 17
 346.801 431.95 355.351 440.051 378.15 440.051 c 9
294 416.301 m 9
 278.5 416.301 l 17
 270.5 416.301 268.7 414.4 268.7 406.101 c 9
 268.7 384.5 l 17
 268.7 377.5 271.4 375 278.5 375 c 9
 294 375 l 17
 302 375 304.101 377.5 304.101 384.5 c 9
 304.101 406.101 l 17
 304.101 414.101 301.4 416.301 294 416.301 c 9
276.15 440.051 m 9
 299.4 440.051 l 17
 321.301 440.051 329.4 431.95 329.4 410.051 c 9
 329.4 377.65 l 17
 329.4 356.351 322.2 348.25 299.4 348.25 c 9
 276.15 348.25 l 17
 253.801 348.25 244.801 355.9 244.801 377.65 c 9
 244.801 410.051 l 17
 244.801 431.95 253.351 440.051 276.15 440.051 c 9
417 514 m 9
 262 514 l 17
 182 514 164 495 164 412 c 9
 164 196 l 17
 164 126 191 101 262 101 c 9
 417 101 l 17
 497 101 518 126 518 196 c 9
 518 412 l 17
 518 492 491 514 417 514 c 9
262 612 m 9
 417 612 l 17
 563 612 617 558 617 412 c 9
 617 196 l 17
 617 54 569 0 417 0 c 9
 262 0 l 17
 113 0 53 51 53 196 c 9
 53 412 l 17
 53 558 110 612 262 612 c 9
EndSplineSet
EndChar
